%
M48
M72
T01C0.0118
T02C0.0315
T03C0.0320
T04C0.0360
T05C0.0400
T06C0.0433
T07C0.0866
%
T01
X1531Y7958
X4181Y8558
X7781Y7908
X8331Y8258
X8731Y8258
X9231Y8458
X8331Y8558
X7781Y9358
X8331Y10858
X7531Y11058
X7431Y11358
X10931Y10608
X11331Y10608
X12631Y9908
X13031Y9158
X14681Y10108
X10931Y9758
X15181Y7808
X16681Y7808
X20831Y9108
X21531Y10908
T02
X2790Y8917
X1373Y8917
X1373Y7499
X2790Y7499
T03
X15931Y11208
X19931Y11208
T04
X13309Y8103
X12325Y8103
X11538Y8103
X10553Y8103
T05
X4881Y11358
X3881Y11358
X2881Y11358
X1881Y11358
X881Y11358
T06
X11046Y7119
X12817Y7119
T07
X14215Y7158
X9648Y7158
M30
