G75*
G70*
%OFA0B0*%
%FSLAX24Y24*%
%IPPOS*%
%LPD*%
%AMOC8*
5,1,8,0,0,1.08239X$1,22.5*
%
%ADD10C,0.0030*%
%ADD11C,0.0040*%
%ADD12C,0.0050*%
%ADD13R,0.0200X0.0800*%
%ADD14R,0.0750X0.0200*%
%ADD15C,0.0060*%
%ADD16C,0.0080*%
D10*
X003146Y006423D02*
X003340Y006423D01*
X003441Y006423D02*
X003441Y006617D01*
X003586Y006617D01*
X003635Y006568D01*
X003635Y006423D01*
X003832Y006423D02*
X003929Y006617D01*
X004030Y006617D02*
X004079Y006568D01*
X004175Y006568D01*
X004224Y006520D01*
X004224Y006471D01*
X004175Y006423D01*
X004079Y006423D01*
X004030Y006471D01*
X004030Y006617D02*
X004030Y006665D01*
X004079Y006713D01*
X004175Y006713D01*
X004224Y006665D01*
X004325Y006568D02*
X004373Y006617D01*
X004470Y006617D01*
X004518Y006568D01*
X004518Y006520D01*
X004325Y006520D01*
X004325Y006568D02*
X004325Y006471D01*
X004373Y006423D01*
X004470Y006423D01*
X004620Y006423D02*
X004620Y006617D01*
X004765Y006617D01*
X004813Y006568D01*
X004813Y006423D01*
X004914Y006423D02*
X005059Y006423D01*
X005108Y006471D01*
X005059Y006520D01*
X004963Y006520D01*
X004914Y006568D01*
X004963Y006617D01*
X005108Y006617D01*
X005209Y006568D02*
X005209Y006471D01*
X005257Y006423D01*
X005354Y006423D01*
X005402Y006471D01*
X005402Y006568D01*
X005354Y006617D01*
X005257Y006617D01*
X005209Y006568D01*
X005504Y006520D02*
X005600Y006617D01*
X005649Y006617D01*
X005504Y006617D02*
X005504Y006423D01*
X006044Y006423D02*
X006044Y006617D01*
X006140Y006617D02*
X006189Y006617D01*
X006140Y006617D02*
X006044Y006520D01*
X006289Y006520D02*
X006483Y006520D01*
X006483Y006568D01*
X006434Y006617D01*
X006338Y006617D01*
X006289Y006568D01*
X006289Y006471D01*
X006338Y006423D01*
X006434Y006423D01*
X006584Y006617D02*
X006681Y006423D01*
X006777Y006617D01*
X006879Y006471D02*
X006927Y006471D01*
X006927Y006423D01*
X006879Y006423D01*
X006879Y006471D01*
X007026Y006423D02*
X007219Y006423D01*
X007123Y006423D02*
X007123Y006713D01*
X007026Y006617D01*
X003832Y006423D02*
X003736Y006617D01*
X003340Y006713D02*
X003146Y006713D01*
X003146Y006423D01*
X003146Y006568D02*
X003243Y006568D01*
D11*
X000532Y006188D02*
X000532Y005728D01*
X000839Y005805D02*
X000916Y005728D01*
X001069Y005728D01*
X001146Y005805D01*
X001146Y005958D01*
X000992Y005958D01*
X000839Y005805D02*
X000839Y006112D01*
X000916Y006188D01*
X001069Y006188D01*
X001146Y006112D01*
X001299Y006112D02*
X001376Y006188D01*
X001530Y006188D01*
X001606Y006112D01*
X001530Y005958D02*
X001376Y005958D01*
X001299Y006035D01*
X001299Y006112D01*
X001530Y005958D02*
X001606Y005882D01*
X001606Y005805D01*
X001530Y005728D01*
X001376Y005728D01*
X001299Y005805D01*
X001760Y005958D02*
X002067Y005958D01*
X002220Y006035D02*
X002374Y006188D01*
X002374Y005728D01*
X002527Y005728D02*
X002220Y005728D01*
X001990Y005728D02*
X001990Y006188D01*
X001760Y005958D01*
X002680Y005958D02*
X002680Y005805D01*
X002757Y005728D01*
X002911Y005728D01*
X002987Y005805D01*
X002987Y005882D01*
X002911Y005958D01*
X002680Y005958D01*
X002834Y006112D01*
X002987Y006188D01*
X003141Y006035D02*
X003294Y006188D01*
X003294Y005728D01*
X003141Y005728D02*
X003448Y005728D01*
X003729Y007103D02*
X003729Y007257D01*
X003729Y007180D02*
X004190Y007180D01*
X004190Y007103D02*
X004190Y007257D01*
X004113Y007410D02*
X003806Y007410D01*
X003729Y007487D01*
X003729Y007640D01*
X003806Y007717D01*
X003883Y007871D02*
X003729Y008024D01*
X004190Y008024D01*
X004190Y007871D02*
X004190Y008177D01*
X004113Y007717D02*
X004190Y007640D01*
X004190Y007487D01*
X004113Y007410D01*
X004148Y009378D02*
X003841Y009378D01*
X004148Y009685D01*
X004148Y009762D01*
X004071Y009838D01*
X003918Y009838D01*
X003841Y009762D01*
X003688Y009762D02*
X003611Y009838D01*
X003457Y009838D01*
X003381Y009762D01*
X003381Y009455D01*
X003457Y009378D01*
X003611Y009378D01*
X003688Y009455D01*
X008181Y007812D02*
X008181Y007505D01*
X008257Y007428D01*
X008411Y007428D01*
X008488Y007505D01*
X008641Y007428D02*
X008948Y007428D01*
X008794Y007428D02*
X008794Y007888D01*
X008641Y007735D01*
X008488Y007812D02*
X008411Y007888D01*
X008257Y007888D01*
X008181Y007812D01*
X011351Y009807D02*
X011351Y010038D01*
X011428Y010114D01*
X011581Y010114D01*
X011658Y010038D01*
X011658Y009807D01*
X011811Y009807D02*
X011351Y009807D01*
X011658Y009961D02*
X011811Y010114D01*
X011811Y010268D02*
X011811Y010575D01*
X012151Y010498D02*
X012151Y010344D01*
X012228Y010268D01*
X012228Y010114D02*
X012381Y010114D01*
X012458Y010038D01*
X012458Y009807D01*
X012611Y009807D02*
X012151Y009807D01*
X012151Y010038D01*
X012228Y010114D01*
X012458Y009961D02*
X012611Y010114D01*
X012611Y010268D02*
X012305Y010575D01*
X012228Y010575D01*
X012151Y010498D01*
X011811Y010421D02*
X011351Y010421D01*
X011505Y010268D01*
X012611Y010268D02*
X012611Y010575D01*
X013901Y009738D02*
X014208Y009738D01*
X014362Y009585D02*
X014515Y009738D01*
X014515Y009278D01*
X014362Y009278D02*
X014669Y009278D01*
X014055Y009508D02*
X013901Y009508D01*
X013901Y009278D02*
X013901Y009738D01*
X012861Y009365D02*
X012861Y009288D01*
X012554Y008981D01*
X012861Y008981D01*
X012401Y008981D02*
X012094Y009442D01*
X012401Y009442D02*
X012094Y008981D01*
X012554Y009365D02*
X012631Y009442D01*
X012784Y009442D01*
X012861Y009365D01*
X021201Y008138D02*
X021201Y007678D01*
X021201Y007832D02*
X021432Y007832D01*
X021508Y007908D01*
X021508Y008062D01*
X021432Y008138D01*
X021201Y008138D01*
X021355Y007832D02*
X021508Y007678D01*
X021662Y007755D02*
X021738Y007678D01*
X021892Y007678D01*
X021969Y007755D01*
X021969Y007832D01*
X021892Y007908D01*
X021815Y007908D01*
X021892Y007908D02*
X021969Y007985D01*
X021969Y008062D01*
X021892Y008138D01*
X021738Y008138D01*
X021662Y008062D01*
X021662Y011799D02*
X021662Y012260D01*
X021508Y012183D02*
X021432Y012260D01*
X021278Y012260D01*
X021201Y012183D01*
X021201Y012106D01*
X021278Y012029D01*
X021432Y012029D01*
X021508Y011953D01*
X021508Y011876D01*
X021432Y011799D01*
X021278Y011799D01*
X021201Y011876D01*
X021662Y012029D02*
X021969Y012029D01*
X021969Y011799D02*
X021969Y012260D01*
X022122Y012260D02*
X022429Y012260D01*
X022276Y012260D02*
X022276Y011799D01*
X022582Y011799D02*
X022889Y011799D01*
X022736Y011799D02*
X022736Y012260D01*
X022582Y012106D01*
X023043Y012106D02*
X023196Y012260D01*
X023196Y011799D01*
X023043Y011799D02*
X023350Y011799D01*
X000686Y006188D02*
X000379Y006188D01*
D12*
X002081Y006240D02*
X002081Y006633D01*
X000331Y008208D02*
X000369Y008572D01*
X000482Y008920D01*
X000665Y009237D01*
X000910Y009509D01*
X001206Y009724D01*
X001540Y009872D01*
X001898Y009948D01*
X002264Y009948D01*
X002622Y009872D01*
X002956Y009724D01*
X003252Y009509D01*
X003497Y009237D01*
X003680Y008920D01*
X003793Y008572D01*
X003831Y008208D01*
X003793Y007844D01*
X003680Y007496D01*
X003497Y007179D01*
X003252Y006907D01*
X002956Y006692D01*
X002622Y006544D01*
X002264Y006468D01*
X001898Y006468D01*
X001540Y006544D01*
X001206Y006692D01*
X000910Y006907D01*
X000665Y007179D01*
X000482Y007496D01*
X000369Y007844D01*
X000331Y008208D01*
X005576Y011478D02*
X005651Y011403D01*
X005727Y011403D01*
X005802Y011478D01*
X005802Y011853D01*
X005727Y011853D02*
X005877Y011853D01*
X006037Y011853D02*
X006262Y011853D01*
X006337Y011778D01*
X006337Y011628D01*
X006262Y011553D01*
X006037Y011553D01*
X006037Y011403D02*
X006037Y011853D01*
X006497Y011778D02*
X006572Y011853D01*
X006722Y011853D01*
X006797Y011778D01*
X006797Y011703D01*
X006497Y011403D01*
X006797Y011403D01*
X016581Y009308D02*
X016581Y006308D01*
X019581Y006308D01*
X019581Y009308D01*
X016581Y009308D01*
X016981Y008808D02*
X017010Y008879D01*
X017081Y008908D01*
X017152Y008879D01*
X017181Y008808D01*
X017152Y008737D01*
X017081Y008708D01*
X017010Y008737D01*
X016981Y008808D01*
X016981Y007808D02*
X017010Y007879D01*
X017081Y007908D01*
X017152Y007879D01*
X017181Y007808D01*
X017152Y007737D01*
X017081Y007708D01*
X017010Y007737D01*
X016981Y007808D01*
X017981Y007808D02*
X018010Y007879D01*
X018081Y007908D01*
X018152Y007879D01*
X018181Y007808D01*
X018152Y007737D01*
X018081Y007708D01*
X018010Y007737D01*
X017981Y007808D01*
X018981Y007808D02*
X019010Y007879D01*
X019081Y007908D01*
X019152Y007879D01*
X019181Y007808D01*
X019152Y007737D01*
X019081Y007708D01*
X019010Y007737D01*
X018981Y007808D01*
X018981Y006808D02*
X019010Y006879D01*
X019081Y006908D01*
X019152Y006879D01*
X019181Y006808D01*
X019152Y006737D01*
X019081Y006708D01*
X019010Y006737D01*
X018981Y006808D01*
X017981Y006808D02*
X018010Y006879D01*
X018081Y006908D01*
X018152Y006879D01*
X018181Y006808D01*
X018152Y006737D01*
X018081Y006708D01*
X018010Y006737D01*
X017981Y006808D01*
X016981Y006808D02*
X017010Y006879D01*
X017081Y006908D01*
X017152Y006879D01*
X017181Y006808D01*
X017152Y006737D01*
X017081Y006708D01*
X017010Y006737D01*
X016981Y006808D01*
X018981Y008808D02*
X019010Y008879D01*
X019081Y008908D01*
X019152Y008879D01*
X019181Y008808D01*
X019152Y008737D01*
X019081Y008708D01*
X019010Y008737D01*
X018981Y008808D01*
X021183Y008660D02*
X021183Y011656D01*
X023183Y011656D01*
X023183Y008660D01*
X021183Y008660D01*
X021439Y009416D02*
X021691Y009416D01*
X021439Y009416D02*
X021439Y011180D01*
X022951Y011180D01*
X022951Y009416D01*
X022699Y009416D01*
X021632Y009416D02*
X021670Y009619D01*
X021779Y009795D01*
X021944Y009920D01*
X022143Y009977D01*
X022349Y009958D01*
X022534Y009865D01*
X022674Y009712D01*
X022748Y009519D01*
X022748Y009313D01*
X022674Y009120D01*
X022534Y008967D01*
X022349Y008874D01*
X022143Y008855D01*
X021944Y008912D01*
X021779Y009037D01*
X021670Y009213D01*
X021632Y009416D01*
X021691Y010676D02*
X022699Y010676D01*
X022699Y010928D01*
X021691Y010928D01*
X021691Y010676D01*
X021439Y010928D02*
X021439Y011180D01*
X018646Y010233D02*
X018346Y010233D01*
X018496Y010233D02*
X018496Y010683D01*
X018346Y010533D01*
X018186Y010608D02*
X018111Y010683D01*
X017886Y010683D01*
X017886Y010233D01*
X018111Y010233D01*
X018186Y010308D01*
X018186Y010608D01*
D13*
X018581Y011208D03*
D14*
X019206Y011208D03*
X016656Y011208D03*
D15*
X017031Y011508D02*
X017031Y010908D01*
X017044Y010858D01*
X017081Y010821D01*
X017131Y010808D01*
X018731Y010808D01*
X018781Y010821D01*
X018818Y010858D01*
X018831Y010908D01*
X018831Y011508D01*
X018818Y011558D01*
X018781Y011595D01*
X018731Y011608D01*
X017131Y011608D01*
X017081Y011595D01*
X017044Y011558D01*
X017031Y011508D01*
X017331Y011208D02*
X017931Y011208D01*
X017931Y011458D01*
X017931Y011208D02*
X017931Y010958D01*
X017931Y011208D02*
X017531Y010958D01*
X017531Y011458D01*
X017931Y011208D01*
X018181Y011208D01*
D16*
X013506Y007552D02*
X010357Y007552D01*
X009569Y006371D02*
X009569Y005977D01*
X014294Y005977D01*
X014294Y006371D01*
X005381Y011108D02*
X005381Y011608D01*
X005131Y011858D01*
X004631Y011858D01*
X004381Y011608D01*
X004131Y011858D01*
X003631Y011858D01*
X003381Y011608D01*
X003131Y011858D01*
X002631Y011858D01*
X002381Y011608D01*
X002131Y011858D01*
X001631Y011858D01*
X001381Y011608D01*
X001131Y011858D01*
X000631Y011858D01*
X000381Y011608D01*
X000381Y011108D01*
X000631Y010858D01*
X001131Y010858D01*
X001381Y011108D01*
X001631Y010858D01*
X002131Y010858D01*
X002381Y011108D01*
X002631Y010858D01*
X003131Y010858D01*
X003381Y011108D01*
X003631Y010858D01*
X004131Y010858D01*
X004381Y011108D01*
X004631Y010858D01*
X005131Y010858D01*
X005381Y011108D01*
M02*
