G75*
G70*
%OFA0B0*%
%FSLAX24Y24*%
%IPPOS*%
%LPD*%
%AMOC8*
5,1,8,0,0,1.08239X$1,22.5*
%
%ADD10C,0.0059*%
%ADD11C,0.0236*%
%ADD12R,0.0630X0.0512*%
%ADD13R,0.0512X0.0630*%
%ADD14R,0.0512X0.0591*%
%ADD15C,0.0480*%
%ADD16R,0.0669X0.0551*%
%ADD17C,0.0472*%
%ADD18R,0.0500X0.0250*%
%ADD19C,0.0540*%
%ADD20C,0.1266*%
%ADD21R,0.0630X0.1063*%
%ADD22R,0.0236X0.1181*%
%ADD23C,0.0600*%
%ADD24C,0.0050*%
%ADD25C,0.0236*%
D10*
X004672Y007251D02*
X004732Y007251D01*
X004732Y007073D01*
X004672Y007073D01*
X004672Y007251D01*
X004672Y007131D02*
X004732Y007131D01*
X004732Y007189D02*
X004672Y007189D01*
X004672Y007247D02*
X004732Y007247D01*
X004869Y007251D02*
X004929Y007251D01*
X004929Y007073D01*
X004869Y007073D01*
X004869Y007251D01*
X004869Y007131D02*
X004929Y007131D01*
X004929Y007189D02*
X004869Y007189D01*
X004869Y007247D02*
X004929Y007247D01*
X005066Y007251D02*
X005126Y007251D01*
X005126Y007073D01*
X005066Y007073D01*
X005066Y007251D01*
X005066Y007131D02*
X005126Y007131D01*
X005126Y007189D02*
X005066Y007189D01*
X005066Y007247D02*
X005126Y007247D01*
X005262Y007251D02*
X005322Y007251D01*
X005322Y007073D01*
X005262Y007073D01*
X005262Y007251D01*
X005262Y007131D02*
X005322Y007131D01*
X005322Y007189D02*
X005262Y007189D01*
X005262Y007247D02*
X005322Y007247D01*
X005459Y007251D02*
X005519Y007251D01*
X005519Y007073D01*
X005459Y007073D01*
X005459Y007251D01*
X005459Y007131D02*
X005519Y007131D01*
X005519Y007189D02*
X005459Y007189D01*
X005459Y007247D02*
X005519Y007247D01*
X005656Y007251D02*
X005716Y007251D01*
X005716Y007073D01*
X005656Y007073D01*
X005656Y007251D01*
X005656Y007131D02*
X005716Y007131D01*
X005716Y007189D02*
X005656Y007189D01*
X005656Y007247D02*
X005716Y007247D01*
X005853Y007251D02*
X005913Y007251D01*
X005913Y007073D01*
X005853Y007073D01*
X005853Y007251D01*
X005853Y007131D02*
X005913Y007131D01*
X005913Y007189D02*
X005853Y007189D01*
X005853Y007247D02*
X005913Y007247D01*
X006050Y007251D02*
X006110Y007251D01*
X006110Y007073D01*
X006050Y007073D01*
X006050Y007251D01*
X006050Y007131D02*
X006110Y007131D01*
X006110Y007189D02*
X006050Y007189D01*
X006050Y007247D02*
X006110Y007247D01*
X006247Y007251D02*
X006307Y007251D01*
X006307Y007073D01*
X006247Y007073D01*
X006247Y007251D01*
X006247Y007131D02*
X006307Y007131D01*
X006307Y007189D02*
X006247Y007189D01*
X006247Y007247D02*
X006307Y007247D01*
X006444Y007251D02*
X006504Y007251D01*
X006504Y007073D01*
X006444Y007073D01*
X006444Y007251D01*
X006444Y007131D02*
X006504Y007131D01*
X006504Y007189D02*
X006444Y007189D01*
X006444Y007247D02*
X006504Y007247D01*
X006640Y007251D02*
X006700Y007251D01*
X006700Y007073D01*
X006640Y007073D01*
X006640Y007251D01*
X006640Y007131D02*
X006700Y007131D01*
X006700Y007189D02*
X006640Y007189D01*
X006640Y007247D02*
X006700Y007247D01*
X006837Y007251D02*
X006897Y007251D01*
X006897Y007073D01*
X006837Y007073D01*
X006837Y007251D01*
X006837Y007131D02*
X006897Y007131D01*
X006897Y007189D02*
X006837Y007189D01*
X006837Y007247D02*
X006897Y007247D01*
X007034Y007251D02*
X007094Y007251D01*
X007094Y007073D01*
X007034Y007073D01*
X007034Y007251D01*
X007034Y007131D02*
X007094Y007131D01*
X007094Y007189D02*
X007034Y007189D01*
X007034Y007247D02*
X007094Y007247D01*
X007231Y007251D02*
X007291Y007251D01*
X007291Y007073D01*
X007231Y007073D01*
X007231Y007251D01*
X007231Y007131D02*
X007291Y007131D01*
X007291Y007189D02*
X007231Y007189D01*
X007231Y007247D02*
X007291Y007247D01*
X007388Y007349D02*
X007388Y007409D01*
X007566Y007409D01*
X007566Y007349D01*
X007388Y007349D01*
X007388Y007407D02*
X007566Y007407D01*
X007388Y007545D02*
X007388Y007605D01*
X007566Y007605D01*
X007566Y007545D01*
X007388Y007545D01*
X007388Y007603D02*
X007566Y007603D01*
X007388Y007742D02*
X007388Y007802D01*
X007566Y007802D01*
X007566Y007742D01*
X007388Y007742D01*
X007388Y007800D02*
X007566Y007800D01*
X007388Y007939D02*
X007388Y007999D01*
X007566Y007999D01*
X007566Y007939D01*
X007388Y007939D01*
X007388Y007997D02*
X007566Y007997D01*
X007388Y008136D02*
X007388Y008196D01*
X007566Y008196D01*
X007566Y008136D01*
X007388Y008136D01*
X007388Y008194D02*
X007566Y008194D01*
X007388Y008333D02*
X007388Y008393D01*
X007566Y008393D01*
X007566Y008333D01*
X007388Y008333D01*
X007388Y008391D02*
X007566Y008391D01*
X007388Y008530D02*
X007388Y008590D01*
X007566Y008590D01*
X007566Y008530D01*
X007388Y008530D01*
X007388Y008588D02*
X007566Y008588D01*
X007388Y008727D02*
X007388Y008787D01*
X007566Y008787D01*
X007566Y008727D01*
X007388Y008727D01*
X007388Y008785D02*
X007566Y008785D01*
X007388Y008923D02*
X007388Y008983D01*
X007566Y008983D01*
X007566Y008923D01*
X007388Y008923D01*
X007388Y008981D02*
X007566Y008981D01*
X007388Y009120D02*
X007388Y009180D01*
X007566Y009180D01*
X007566Y009120D01*
X007388Y009120D01*
X007388Y009178D02*
X007566Y009178D01*
X007388Y009317D02*
X007388Y009377D01*
X007566Y009377D01*
X007566Y009317D01*
X007388Y009317D01*
X007388Y009375D02*
X007566Y009375D01*
X007388Y009514D02*
X007388Y009574D01*
X007566Y009574D01*
X007566Y009514D01*
X007388Y009514D01*
X007388Y009572D02*
X007566Y009572D01*
X007388Y009711D02*
X007388Y009771D01*
X007566Y009771D01*
X007566Y009711D01*
X007388Y009711D01*
X007388Y009769D02*
X007566Y009769D01*
X007388Y009908D02*
X007388Y009968D01*
X007566Y009968D01*
X007566Y009908D01*
X007388Y009908D01*
X007388Y009966D02*
X007566Y009966D01*
X007291Y010065D02*
X007231Y010065D01*
X007231Y010243D01*
X007291Y010243D01*
X007291Y010065D01*
X007291Y010123D02*
X007231Y010123D01*
X007231Y010181D02*
X007291Y010181D01*
X007291Y010239D02*
X007231Y010239D01*
X007094Y010065D02*
X007034Y010065D01*
X007034Y010243D01*
X007094Y010243D01*
X007094Y010065D01*
X007094Y010123D02*
X007034Y010123D01*
X007034Y010181D02*
X007094Y010181D01*
X007094Y010239D02*
X007034Y010239D01*
X006897Y010065D02*
X006837Y010065D01*
X006837Y010243D01*
X006897Y010243D01*
X006897Y010065D01*
X006897Y010123D02*
X006837Y010123D01*
X006837Y010181D02*
X006897Y010181D01*
X006897Y010239D02*
X006837Y010239D01*
X006700Y010065D02*
X006640Y010065D01*
X006640Y010243D01*
X006700Y010243D01*
X006700Y010065D01*
X006700Y010123D02*
X006640Y010123D01*
X006640Y010181D02*
X006700Y010181D01*
X006700Y010239D02*
X006640Y010239D01*
X006504Y010065D02*
X006444Y010065D01*
X006444Y010243D01*
X006504Y010243D01*
X006504Y010065D01*
X006504Y010123D02*
X006444Y010123D01*
X006444Y010181D02*
X006504Y010181D01*
X006504Y010239D02*
X006444Y010239D01*
X006307Y010065D02*
X006247Y010065D01*
X006247Y010243D01*
X006307Y010243D01*
X006307Y010065D01*
X006307Y010123D02*
X006247Y010123D01*
X006247Y010181D02*
X006307Y010181D01*
X006307Y010239D02*
X006247Y010239D01*
X006110Y010065D02*
X006050Y010065D01*
X006050Y010243D01*
X006110Y010243D01*
X006110Y010065D01*
X006110Y010123D02*
X006050Y010123D01*
X006050Y010181D02*
X006110Y010181D01*
X006110Y010239D02*
X006050Y010239D01*
X005913Y010065D02*
X005853Y010065D01*
X005853Y010243D01*
X005913Y010243D01*
X005913Y010065D01*
X005913Y010123D02*
X005853Y010123D01*
X005853Y010181D02*
X005913Y010181D01*
X005913Y010239D02*
X005853Y010239D01*
X005716Y010065D02*
X005656Y010065D01*
X005656Y010243D01*
X005716Y010243D01*
X005716Y010065D01*
X005716Y010123D02*
X005656Y010123D01*
X005656Y010181D02*
X005716Y010181D01*
X005716Y010239D02*
X005656Y010239D01*
X005519Y010065D02*
X005459Y010065D01*
X005459Y010243D01*
X005519Y010243D01*
X005519Y010065D01*
X005519Y010123D02*
X005459Y010123D01*
X005459Y010181D02*
X005519Y010181D01*
X005519Y010239D02*
X005459Y010239D01*
X005322Y010065D02*
X005262Y010065D01*
X005262Y010243D01*
X005322Y010243D01*
X005322Y010065D01*
X005322Y010123D02*
X005262Y010123D01*
X005262Y010181D02*
X005322Y010181D01*
X005322Y010239D02*
X005262Y010239D01*
X005126Y010065D02*
X005066Y010065D01*
X005066Y010243D01*
X005126Y010243D01*
X005126Y010065D01*
X005126Y010123D02*
X005066Y010123D01*
X005066Y010181D02*
X005126Y010181D01*
X005126Y010239D02*
X005066Y010239D01*
X004929Y010065D02*
X004869Y010065D01*
X004869Y010243D01*
X004929Y010243D01*
X004929Y010065D01*
X004929Y010123D02*
X004869Y010123D01*
X004869Y010181D02*
X004929Y010181D01*
X004929Y010239D02*
X004869Y010239D01*
X004732Y010065D02*
X004672Y010065D01*
X004672Y010243D01*
X004732Y010243D01*
X004732Y010065D01*
X004732Y010123D02*
X004672Y010123D01*
X004672Y010181D02*
X004732Y010181D01*
X004732Y010239D02*
X004672Y010239D01*
X004574Y009968D02*
X004574Y009908D01*
X004396Y009908D01*
X004396Y009968D01*
X004574Y009968D01*
X004574Y009966D02*
X004396Y009966D01*
X004574Y009771D02*
X004574Y009711D01*
X004396Y009711D01*
X004396Y009771D01*
X004574Y009771D01*
X004574Y009769D02*
X004396Y009769D01*
X004574Y009574D02*
X004574Y009514D01*
X004396Y009514D01*
X004396Y009574D01*
X004574Y009574D01*
X004574Y009572D02*
X004396Y009572D01*
X004574Y009377D02*
X004574Y009317D01*
X004396Y009317D01*
X004396Y009377D01*
X004574Y009377D01*
X004574Y009375D02*
X004396Y009375D01*
X004574Y009180D02*
X004574Y009120D01*
X004396Y009120D01*
X004396Y009180D01*
X004574Y009180D01*
X004574Y009178D02*
X004396Y009178D01*
X004574Y008983D02*
X004574Y008923D01*
X004396Y008923D01*
X004396Y008983D01*
X004574Y008983D01*
X004574Y008981D02*
X004396Y008981D01*
X004574Y008787D02*
X004574Y008727D01*
X004396Y008727D01*
X004396Y008787D01*
X004574Y008787D01*
X004574Y008785D02*
X004396Y008785D01*
X004574Y008590D02*
X004574Y008530D01*
X004396Y008530D01*
X004396Y008590D01*
X004574Y008590D01*
X004574Y008588D02*
X004396Y008588D01*
X004574Y008393D02*
X004574Y008333D01*
X004396Y008333D01*
X004396Y008393D01*
X004574Y008393D01*
X004574Y008391D02*
X004396Y008391D01*
X004574Y008196D02*
X004574Y008136D01*
X004396Y008136D01*
X004396Y008196D01*
X004574Y008196D01*
X004574Y008194D02*
X004396Y008194D01*
X004574Y007999D02*
X004574Y007939D01*
X004396Y007939D01*
X004396Y007999D01*
X004574Y007999D01*
X004574Y007997D02*
X004396Y007997D01*
X004574Y007802D02*
X004574Y007742D01*
X004396Y007742D01*
X004396Y007802D01*
X004574Y007802D01*
X004574Y007800D02*
X004396Y007800D01*
X004574Y007605D02*
X004574Y007545D01*
X004396Y007545D01*
X004396Y007605D01*
X004574Y007605D01*
X004574Y007603D02*
X004396Y007603D01*
X004574Y007409D02*
X004574Y007349D01*
X004396Y007349D01*
X004396Y007409D01*
X004574Y007409D01*
X004574Y007407D02*
X004396Y007407D01*
D11*
X007044Y007595D02*
X007044Y009721D01*
X007044Y007595D02*
X004918Y007595D01*
X004918Y009721D01*
X007044Y009721D01*
X007044Y007830D02*
X004918Y007830D01*
X004918Y008065D02*
X007044Y008065D01*
X007044Y008300D02*
X004918Y008300D01*
X004918Y008535D02*
X007044Y008535D01*
X007044Y008770D02*
X004918Y008770D01*
X004918Y009005D02*
X007044Y009005D01*
X007044Y009240D02*
X004918Y009240D01*
X004918Y009475D02*
X007044Y009475D01*
X007044Y009710D02*
X004918Y009710D01*
D12*
X011531Y009482D03*
X012431Y009482D03*
X012431Y008734D03*
X011531Y008734D03*
D13*
X021307Y007158D03*
X022055Y007158D03*
D14*
X008516Y006908D03*
X007847Y006908D03*
X003816Y010358D03*
X003147Y010358D03*
D15*
X015691Y011208D02*
X016171Y011208D01*
X019691Y011208D02*
X020171Y011208D01*
D16*
X020003Y008808D03*
X020011Y007808D03*
X020003Y006808D03*
X016160Y006808D03*
X016152Y007808D03*
X016160Y008808D03*
D17*
X002790Y008917D03*
X001373Y008917D03*
X001373Y007499D03*
X002790Y007499D03*
D18*
X021057Y009408D03*
X021057Y009908D03*
X021057Y010408D03*
X021057Y010908D03*
X023309Y010908D03*
X023309Y010408D03*
X023309Y009908D03*
X023309Y009408D03*
D19*
X013309Y008103D03*
X012325Y008103D03*
X011538Y008103D03*
X010553Y008103D03*
D20*
X009648Y007158D03*
X014215Y007158D03*
D21*
X014080Y008508D03*
X015183Y008508D03*
D22*
X014687Y011408D03*
X014294Y011408D03*
X013900Y011408D03*
X013506Y011408D03*
X013113Y011408D03*
X012719Y011408D03*
X012325Y011408D03*
X011931Y011408D03*
X011538Y011408D03*
X011144Y011408D03*
X010750Y011408D03*
X010357Y011408D03*
X009963Y011408D03*
X009569Y011408D03*
X009176Y011408D03*
D23*
X004881Y011358D03*
X003881Y011358D03*
X002881Y011358D03*
X001881Y011358D03*
X000881Y011358D03*
D24*
X001481Y007308D02*
X001481Y006958D01*
X007631Y006958D01*
X007847Y006908D01*
X008031Y007158D01*
X008031Y008158D01*
X007581Y008158D01*
X007477Y008166D01*
X007477Y008363D02*
X007581Y008358D01*
X008331Y008358D01*
X008331Y008258D01*
X008731Y008258D02*
X009731Y009258D01*
X011231Y009258D01*
X011531Y009482D01*
X011131Y009558D02*
X011131Y009808D01*
X011231Y009908D01*
X012631Y009908D01*
X012431Y009482D02*
X012131Y009258D01*
X012131Y009108D01*
X011181Y009108D01*
X011131Y009058D01*
X011131Y008458D01*
X009231Y008458D01*
X008531Y008758D02*
X008531Y007908D01*
X010231Y007908D01*
X010431Y007708D01*
X012831Y007708D01*
X012831Y010708D01*
X013181Y010708D01*
X014031Y009858D01*
X014881Y010708D01*
X014881Y011558D01*
X020281Y011558D01*
X020531Y011308D01*
X020531Y010658D01*
X021331Y010658D01*
X021431Y010558D01*
X021431Y009658D01*
X021281Y009508D01*
X021057Y009408D01*
X021281Y009308D01*
X021831Y008758D01*
X021831Y007458D01*
X022055Y007158D01*
X021307Y007158D02*
X021081Y007308D01*
X020631Y007308D01*
X020631Y010108D01*
X020831Y010308D01*
X021057Y010408D01*
X021057Y009908D02*
X020831Y009808D01*
X020731Y009708D01*
X020731Y009208D01*
X020831Y009108D01*
X020331Y008558D02*
X020003Y008808D01*
X020331Y008558D02*
X020431Y008458D01*
X020431Y007508D01*
X020331Y007408D01*
X016931Y007408D01*
X016931Y008108D01*
X016481Y008558D01*
X016160Y008808D01*
X015831Y008958D01*
X014681Y010108D01*
X014031Y009858D02*
X014881Y009008D01*
X015183Y008508D01*
X014581Y008108D02*
X015481Y007208D01*
X019681Y007208D01*
X019681Y007058D01*
X020003Y006808D01*
X020631Y007308D02*
X015881Y007308D01*
X015731Y007458D01*
X015731Y007808D01*
X015181Y007808D01*
X014581Y008108D02*
X014581Y009158D01*
X013031Y009158D01*
X012431Y008734D02*
X012431Y008358D01*
X012325Y008103D01*
X011538Y008103D02*
X011531Y008358D01*
X011531Y008734D01*
X011131Y009558D02*
X007581Y009558D01*
X007477Y009544D01*
X007477Y009347D02*
X007581Y009358D01*
X007781Y009358D01*
X007581Y009758D02*
X007477Y009741D01*
X007581Y009758D02*
X010931Y009758D01*
X010781Y010308D02*
X011331Y010308D01*
X011331Y010608D01*
X011131Y010408D02*
X010831Y010408D01*
X010781Y010458D01*
X006481Y010458D01*
X006331Y010308D01*
X006331Y010258D01*
X006277Y010154D01*
X006131Y010258D02*
X006080Y010154D01*
X006131Y010258D02*
X006131Y010308D01*
X006481Y010658D01*
X010931Y010658D01*
X010931Y010608D01*
X011131Y010408D02*
X011131Y010858D01*
X011144Y011408D01*
X012325Y011408D02*
X012431Y010858D01*
X012431Y010708D01*
X012831Y010708D01*
X010781Y010308D02*
X010731Y010358D01*
X006581Y010358D01*
X006481Y010258D01*
X006474Y010154D01*
X007081Y009958D02*
X004681Y009958D01*
X004681Y008858D01*
X004581Y008758D01*
X004485Y008757D01*
X004381Y008808D01*
X004031Y008808D01*
X004031Y008858D01*
X002881Y007708D01*
X002790Y007499D01*
X002931Y007158D02*
X002431Y007158D01*
X002431Y008458D01*
X002681Y008708D01*
X002790Y008917D01*
X002431Y008858D02*
X002431Y009608D01*
X002931Y010108D01*
X003147Y010358D01*
X003581Y010608D02*
X003816Y010358D01*
X004031Y010108D01*
X004031Y008858D01*
X004181Y008558D02*
X004381Y008558D01*
X004485Y008560D01*
X004485Y008363D02*
X004381Y008308D01*
X003631Y008308D01*
X003631Y007858D01*
X002931Y007158D01*
X001481Y007308D02*
X001373Y007499D01*
X001531Y007958D02*
X002431Y008858D01*
X004702Y010154D02*
X004731Y010258D01*
X006131Y011658D01*
X007631Y011658D01*
X007631Y011158D01*
X007531Y011058D01*
X007431Y011358D02*
X006031Y011358D01*
X004931Y010258D01*
X004899Y010154D01*
X005096Y010154D02*
X005131Y010258D01*
X005131Y010308D01*
X005681Y010858D01*
X008331Y010858D01*
X007281Y009758D02*
X007081Y009958D01*
X007281Y009758D02*
X007281Y008808D01*
X007381Y008808D01*
X007477Y008757D01*
X007581Y008758D01*
X008531Y008758D01*
X008331Y008558D02*
X007581Y008558D01*
X007477Y008560D01*
X007477Y007969D02*
X007581Y007958D01*
X007781Y007958D01*
X007781Y007908D01*
X008531Y007908D02*
X008531Y007158D01*
X008516Y006908D01*
X013309Y008103D02*
X013531Y008258D01*
X013781Y008258D01*
X014080Y008508D01*
X016152Y007808D02*
X016681Y007808D01*
X019581Y008158D02*
X019581Y011008D01*
X019931Y011208D01*
X021057Y010908D02*
X021531Y010908D01*
X019581Y008158D02*
X019681Y008058D01*
X020011Y007808D01*
X003581Y010608D02*
X003581Y010758D01*
X001931Y010758D01*
X001481Y011208D01*
X001131Y011208D01*
X000881Y011358D01*
D25*
X004181Y008558D03*
X001531Y007958D03*
X007531Y011058D03*
X007431Y011358D03*
X008331Y010858D03*
X010931Y010608D03*
X011331Y010608D03*
X012631Y009908D03*
X013031Y009158D03*
X014681Y010108D03*
X010931Y009758D03*
X009231Y008458D03*
X008731Y008258D03*
X008331Y008258D03*
X007781Y007908D03*
X008331Y008558D03*
X007781Y009358D03*
X015181Y007808D03*
X016681Y007808D03*
X020831Y009108D03*
X021531Y010908D03*
M02*
