G75*
G70*
%OFA0B0*%
%FSLAX24Y24*%
%IPPOS*%
%LPD*%
%AMOC8*
5,1,8,0,0,1.08239X$1,22.5*
%
%ADD10C,0.0480*%
%ADD11C,0.0472*%
%ADD12C,0.0540*%
%ADD13C,0.1266*%
%ADD14R,0.0236X0.1181*%
%ADD15C,0.0600*%
%ADD16C,0.0050*%
%ADD17C,0.0236*%
%ADD18C,0.0160*%
D10*
X015691Y011208D02*
X016171Y011208D01*
X019691Y011208D02*
X020171Y011208D01*
D11*
X002790Y008917D03*
X001373Y008917D03*
X001373Y007499D03*
X002790Y007499D03*
D12*
X010553Y008103D03*
X011538Y008103D03*
X012325Y008103D03*
X013309Y008103D03*
D13*
X014215Y007158D03*
X009648Y007158D03*
D14*
X009766Y011408D03*
X009372Y011408D03*
X008979Y011408D03*
X010160Y011408D03*
X010553Y011408D03*
X010947Y011408D03*
X011341Y011408D03*
X011735Y011408D03*
X012128Y011408D03*
X012522Y011408D03*
X012916Y011408D03*
X013309Y011408D03*
X013703Y011408D03*
X014097Y011408D03*
X014490Y011408D03*
D15*
X004881Y011358D03*
X003881Y011358D03*
X002881Y011358D03*
X001881Y011358D03*
X000881Y011358D03*
D16*
X003881Y011358D02*
X004031Y011108D01*
X004331Y011108D01*
X004331Y010958D01*
X004581Y010708D01*
X004981Y010708D01*
X007781Y007908D01*
X008331Y008258D02*
X008731Y008258D01*
X008431Y008458D02*
X009231Y008458D01*
X008431Y008458D02*
X008331Y008558D01*
X009431Y009158D02*
X013031Y009158D01*
X013631Y009358D02*
X015181Y007808D01*
X013631Y009358D02*
X011331Y009358D01*
X010931Y009758D01*
X009431Y009158D02*
X007531Y011058D01*
X007531Y011258D02*
X007631Y011258D01*
X008781Y010108D01*
X014681Y010108D01*
X014631Y010408D02*
X015131Y010908D01*
X015131Y011108D01*
X015481Y011108D01*
X015931Y011208D01*
X014631Y010408D02*
X008781Y010408D01*
X008331Y010858D01*
X007531Y011258D02*
X007431Y011358D01*
X005831Y011308D02*
X005131Y011308D01*
X004881Y011358D01*
X005831Y011308D02*
X007781Y009358D01*
X010931Y010608D02*
X010931Y010858D01*
X010947Y011408D01*
X011341Y011408D02*
X011331Y010858D01*
X011331Y010608D01*
X012631Y009908D02*
X013081Y009458D01*
X020481Y009458D01*
X020831Y009108D01*
D17*
X020831Y009108D03*
X021531Y010908D03*
X016681Y007808D03*
X015181Y007808D03*
X013031Y009158D03*
X012631Y009908D03*
X011331Y010608D03*
X010931Y010608D03*
X010931Y009758D03*
X009231Y008458D03*
X008731Y008258D03*
X008331Y008258D03*
X007781Y007908D03*
X008331Y008558D03*
X007781Y009358D03*
X008331Y010858D03*
X007531Y011058D03*
X007431Y011358D03*
X004181Y008558D03*
X001531Y007958D03*
X014681Y010108D03*
D18*
X000681Y010965D02*
X000681Y006658D01*
X009055Y006658D01*
X008993Y006720D01*
X008875Y007004D01*
X008875Y007312D01*
X008993Y007596D01*
X009210Y007813D01*
X009494Y007931D01*
X009802Y007931D01*
X010086Y007813D01*
X010303Y007596D01*
X010421Y007312D01*
X010421Y007004D01*
X010303Y006720D01*
X010241Y006658D01*
X010868Y006658D01*
X010766Y006700D01*
X010627Y006839D01*
X010552Y007021D01*
X010552Y007217D01*
X010627Y007398D01*
X010766Y007537D01*
X010947Y007612D01*
X011144Y007612D01*
X011325Y007537D01*
X011464Y007398D01*
X011539Y007217D01*
X011539Y007021D01*
X011464Y006839D01*
X011325Y006700D01*
X011223Y006658D01*
X012640Y006658D01*
X012538Y006700D01*
X012399Y006839D01*
X012324Y007021D01*
X012324Y007217D01*
X012399Y007398D01*
X012538Y007537D01*
X012719Y007612D01*
X012915Y007612D01*
X013097Y007537D01*
X013235Y007398D01*
X013311Y007217D01*
X013311Y007021D01*
X013235Y006839D01*
X013097Y006700D01*
X012994Y006658D01*
X013622Y006658D01*
X013559Y006720D01*
X013442Y007004D01*
X013442Y007312D01*
X013559Y007596D01*
X013777Y007813D01*
X014061Y007931D01*
X014369Y007931D01*
X014653Y007813D01*
X014870Y007596D01*
X014988Y007312D01*
X014988Y007004D01*
X014870Y006720D01*
X014808Y006658D01*
X023181Y006658D01*
X023181Y011658D01*
X014749Y011658D01*
X014749Y010760D01*
X014667Y010678D01*
X014314Y010678D01*
X014294Y010698D01*
X014273Y010678D01*
X013921Y010678D01*
X013900Y010698D01*
X013879Y010678D01*
X013527Y010678D01*
X013506Y010698D01*
X013485Y010678D01*
X013133Y010678D01*
X013112Y010698D01*
X013092Y010678D01*
X012740Y010678D01*
X012719Y010698D01*
X012698Y010678D01*
X012346Y010678D01*
X012325Y010698D01*
X012304Y010678D01*
X011952Y010678D01*
X011931Y010698D01*
X011911Y010678D01*
X011582Y010678D01*
X011589Y010659D01*
X011589Y010573D01*
X014563Y010573D01*
X014966Y010976D01*
X014966Y011040D01*
X014966Y011176D01*
X015063Y011273D01*
X015311Y011273D01*
X015311Y011284D01*
X015369Y011423D01*
X015476Y011530D01*
X015616Y011588D01*
X016247Y011588D01*
X016387Y011530D01*
X016494Y011423D01*
X016551Y011284D01*
X016551Y011132D01*
X016494Y010993D01*
X016387Y010886D01*
X016247Y010828D01*
X015616Y010828D01*
X015476Y010886D01*
X015419Y010943D01*
X015296Y010943D01*
X015296Y010840D01*
X015200Y010743D01*
X014796Y010340D01*
X014828Y010327D01*
X014900Y010254D01*
X014939Y010159D01*
X014939Y010057D01*
X014900Y009962D01*
X014828Y009889D01*
X014733Y009850D01*
X014630Y009850D01*
X014535Y009889D01*
X014481Y009943D01*
X012889Y009943D01*
X012889Y009883D01*
X013150Y009623D01*
X020413Y009623D01*
X020550Y009623D01*
X020807Y009366D01*
X020883Y009366D01*
X020978Y009327D01*
X021050Y009254D01*
X021089Y009159D01*
X021089Y009057D01*
X021050Y008962D01*
X020978Y008889D01*
X020883Y008850D01*
X020780Y008850D01*
X020685Y008889D01*
X020613Y008962D01*
X020573Y009057D01*
X020573Y009133D01*
X020413Y009293D01*
X013930Y009293D01*
X015157Y008066D01*
X015233Y008066D01*
X015328Y008027D01*
X015400Y007954D01*
X015439Y007859D01*
X015439Y007757D01*
X015400Y007662D01*
X015328Y007589D01*
X015233Y007550D01*
X015130Y007550D01*
X015035Y007589D01*
X014963Y007662D01*
X014923Y007757D01*
X014923Y007833D01*
X013563Y009193D01*
X013289Y009193D01*
X013289Y009107D01*
X013250Y009012D01*
X013744Y009012D01*
X013903Y008853D02*
X007069Y008853D01*
X006911Y009012D02*
X009344Y009012D01*
X009363Y008993D02*
X009266Y009090D01*
X007556Y010800D01*
X007480Y010800D01*
X007385Y010839D01*
X007313Y010912D01*
X007273Y011007D01*
X007273Y011109D01*
X007286Y011139D01*
X007285Y011139D01*
X007213Y011212D01*
X007173Y011307D01*
X007173Y011409D01*
X007213Y011504D01*
X007285Y011577D01*
X007380Y011616D01*
X007483Y011616D01*
X007578Y011577D01*
X007650Y011504D01*
X007684Y011423D01*
X007700Y011423D01*
X008116Y011007D01*
X008185Y011077D01*
X008280Y011116D01*
X008383Y011116D01*
X008478Y011077D01*
X008550Y011004D01*
X008589Y010909D01*
X008589Y010833D01*
X008850Y010573D01*
X010673Y010573D01*
X010673Y010659D01*
X010681Y010678D01*
X010377Y010678D01*
X010357Y010698D01*
X010336Y010678D01*
X009984Y010678D01*
X009963Y010698D01*
X009942Y010678D01*
X009590Y010678D01*
X009569Y010698D01*
X009548Y010678D01*
X009211Y010678D01*
X009171Y010638D01*
X008979Y010638D01*
X008979Y011408D01*
X008978Y011408D01*
X008681Y011408D01*
X008681Y010743D01*
X008786Y010638D01*
X008978Y010638D01*
X008978Y011408D01*
X008978Y011408D01*
X008681Y011408D01*
X008681Y011658D01*
X005204Y011658D01*
X005254Y011607D01*
X005310Y011473D01*
X005900Y011473D01*
X005996Y011376D01*
X007757Y009616D01*
X007833Y009616D01*
X007928Y009577D01*
X008000Y009504D01*
X008039Y009409D01*
X008039Y009307D01*
X008000Y009212D01*
X007928Y009139D01*
X007833Y009100D01*
X007730Y009100D01*
X007635Y009139D01*
X007563Y009212D01*
X007523Y009307D01*
X007523Y009383D01*
X005763Y011143D01*
X005269Y011143D01*
X005254Y011109D01*
X005131Y010985D01*
X004969Y010918D01*
X004794Y010918D01*
X004632Y010985D01*
X004508Y011109D01*
X004496Y011138D01*
X004496Y011040D01*
X004496Y011026D01*
X004650Y010873D01*
X005050Y010873D01*
X005146Y010776D01*
X007757Y008166D01*
X007833Y008166D01*
X007928Y008127D01*
X008000Y008054D01*
X008039Y007959D01*
X008039Y007857D01*
X008000Y007762D01*
X007928Y007689D01*
X007833Y007650D01*
X007730Y007650D01*
X007635Y007689D01*
X007563Y007762D01*
X007523Y007857D01*
X007523Y007933D01*
X004913Y010543D01*
X004650Y010543D01*
X004513Y010543D01*
X004263Y010793D01*
X004166Y010890D01*
X004166Y010943D01*
X004077Y010943D01*
X004058Y010931D01*
X004022Y010940D01*
X003969Y010918D01*
X003794Y010918D01*
X003632Y010985D01*
X003508Y011109D01*
X003441Y011271D01*
X003441Y011446D01*
X003508Y011607D01*
X003559Y011658D01*
X003204Y011658D01*
X003254Y011607D01*
X003321Y011446D01*
X003321Y011271D01*
X003254Y011109D01*
X003131Y010985D01*
X002969Y010918D01*
X002794Y010918D01*
X002632Y010985D01*
X002508Y011109D01*
X002441Y011271D01*
X002441Y011446D01*
X002508Y011607D01*
X002559Y011658D01*
X002260Y011658D01*
X002288Y011630D01*
X002361Y011454D01*
X002361Y011378D01*
X001902Y011378D01*
X001902Y011338D01*
X002361Y011338D01*
X002361Y011263D01*
X002288Y011086D01*
X002153Y010951D01*
X001977Y010878D01*
X001901Y010878D01*
X001901Y011338D01*
X001861Y011338D01*
X001401Y011338D01*
X001401Y011263D01*
X001474Y011086D01*
X001609Y010951D01*
X001786Y010878D01*
X001861Y010878D01*
X001861Y011338D01*
X001861Y011378D01*
X001401Y011378D01*
X001401Y011454D01*
X001474Y011630D01*
X001503Y011658D01*
X001204Y011658D01*
X001254Y011607D01*
X001321Y011446D01*
X001321Y011271D01*
X001254Y011109D01*
X001131Y010985D01*
X000969Y010918D01*
X000794Y010918D01*
X000681Y010965D01*
X000681Y010914D02*
X001698Y010914D01*
X001861Y010914D02*
X001901Y010914D01*
X001901Y011073D02*
X001861Y011073D01*
X002065Y010914D02*
X004166Y010914D01*
X004300Y010756D02*
X000681Y010756D01*
X000681Y010597D02*
X004459Y010597D01*
X004608Y010914D02*
X005992Y010914D01*
X006150Y010756D02*
X005167Y010756D01*
X005326Y010597D02*
X006309Y010597D01*
X006617Y010756D02*
X007600Y010756D01*
X007759Y010597D02*
X006776Y010597D01*
X006934Y010439D02*
X007917Y010439D01*
X008076Y010280D02*
X007093Y010280D01*
X007251Y010122D02*
X008234Y010122D01*
X008393Y009963D02*
X007410Y009963D01*
X007568Y009805D02*
X008552Y009805D01*
X008710Y009646D02*
X007727Y009646D01*
X008007Y009488D02*
X008869Y009488D01*
X009027Y009329D02*
X008039Y009329D01*
X007959Y009170D02*
X009186Y009170D01*
X009363Y008993D02*
X012831Y008993D01*
X012885Y008939D01*
X012980Y008900D01*
X013083Y008900D01*
X013178Y008939D01*
X013250Y009012D01*
X013289Y009170D02*
X013586Y009170D01*
X014052Y009170D02*
X020536Y009170D01*
X020592Y009012D02*
X014211Y009012D01*
X014369Y008853D02*
X020772Y008853D01*
X020891Y008853D02*
X023181Y008853D01*
X023181Y008695D02*
X014528Y008695D01*
X014687Y008536D02*
X023181Y008536D01*
X023181Y008378D02*
X014845Y008378D01*
X015004Y008219D02*
X023181Y008219D01*
X023181Y008061D02*
X015246Y008061D01*
X015422Y007902D02*
X023181Y007902D01*
X023181Y007744D02*
X015434Y007744D01*
X015317Y007585D02*
X023181Y007585D01*
X023181Y007426D02*
X014940Y007426D01*
X014988Y007268D02*
X023181Y007268D01*
X023181Y007109D02*
X014988Y007109D01*
X014966Y006951D02*
X023181Y006951D01*
X023181Y006792D02*
X014900Y006792D01*
X014875Y007585D02*
X015046Y007585D01*
X014929Y007744D02*
X014723Y007744D01*
X014854Y007902D02*
X014439Y007902D01*
X014696Y008061D02*
X013719Y008061D01*
X013719Y008021D02*
X013657Y007871D01*
X013542Y007755D01*
X013391Y007693D01*
X013228Y007693D01*
X013077Y007755D01*
X012962Y007871D01*
X012899Y008021D01*
X012899Y008185D01*
X012962Y008335D01*
X013077Y008451D01*
X013228Y008513D01*
X013391Y008513D01*
X013542Y008451D01*
X013657Y008335D01*
X013719Y008185D01*
X013719Y008021D01*
X013670Y007902D02*
X013991Y007902D01*
X013707Y007744D02*
X013513Y007744D01*
X013555Y007585D02*
X012981Y007585D01*
X013106Y007744D02*
X012529Y007744D01*
X012557Y007755D02*
X012673Y007871D01*
X012735Y008021D01*
X012735Y008185D01*
X012673Y008335D01*
X012557Y008451D01*
X012407Y008513D01*
X012244Y008513D01*
X012093Y008451D01*
X011978Y008335D01*
X011931Y008224D01*
X011885Y008335D01*
X011770Y008451D01*
X011619Y008513D01*
X011456Y008513D01*
X011305Y008451D01*
X011190Y008335D01*
X011128Y008185D01*
X011128Y008021D01*
X011190Y007871D01*
X011305Y007755D01*
X011456Y007693D01*
X011619Y007693D01*
X011770Y007755D01*
X011885Y007871D01*
X011931Y007982D01*
X011978Y007871D01*
X012093Y007755D01*
X012244Y007693D01*
X012407Y007693D01*
X012557Y007755D01*
X012654Y007585D02*
X011209Y007585D01*
X011334Y007744D02*
X010830Y007744D01*
X010808Y007721D02*
X010935Y007848D01*
X011003Y008013D01*
X011003Y008093D01*
X010564Y008093D01*
X010564Y008113D01*
X011003Y008113D01*
X011003Y008192D01*
X010935Y008358D01*
X010808Y008484D01*
X010643Y008553D01*
X010563Y008553D01*
X010563Y008113D01*
X010543Y008113D01*
X010543Y008093D01*
X010103Y008093D01*
X010103Y008013D01*
X010172Y007848D01*
X010299Y007721D01*
X010464Y007653D01*
X010543Y007653D01*
X010543Y008093D01*
X010563Y008093D01*
X010563Y007653D01*
X010643Y007653D01*
X010808Y007721D01*
X010882Y007585D02*
X010308Y007585D01*
X010276Y007744D02*
X010156Y007744D01*
X010543Y007744D02*
X010563Y007744D01*
X010563Y007902D02*
X010543Y007902D01*
X010543Y008061D02*
X010563Y008061D01*
X010543Y008113D02*
X010103Y008113D01*
X010103Y008192D01*
X010172Y008358D01*
X010299Y008484D01*
X010464Y008553D01*
X010543Y008553D01*
X010543Y008113D01*
X010543Y008219D02*
X010563Y008219D01*
X010563Y008378D02*
X010543Y008378D01*
X010192Y008378D02*
X009477Y008378D01*
X009489Y008407D02*
X009450Y008312D01*
X009378Y008239D01*
X009283Y008200D01*
X009180Y008200D01*
X009085Y008239D01*
X009031Y008293D01*
X008989Y008293D01*
X008989Y008207D01*
X008950Y008112D01*
X008878Y008039D01*
X008783Y008000D01*
X008680Y008000D01*
X008585Y008039D01*
X008531Y008093D01*
X008478Y008039D01*
X008383Y008000D01*
X008280Y008000D01*
X008185Y008039D01*
X008113Y008112D01*
X008073Y008207D01*
X008073Y008309D01*
X008113Y008404D01*
X008116Y008408D01*
X008113Y008412D01*
X008073Y008507D01*
X008073Y008609D01*
X008113Y008704D01*
X008185Y008777D01*
X008280Y008816D01*
X008383Y008816D01*
X008478Y008777D01*
X008550Y008704D01*
X008584Y008623D01*
X009031Y008623D01*
X009085Y008677D01*
X009180Y008716D01*
X009283Y008716D01*
X009378Y008677D01*
X009450Y008604D01*
X009489Y008509D01*
X009489Y008407D01*
X009478Y008536D02*
X010424Y008536D01*
X010543Y008536D02*
X010563Y008536D01*
X010683Y008536D02*
X014220Y008536D01*
X014061Y008695D02*
X009334Y008695D01*
X009128Y008695D02*
X008554Y008695D01*
X008109Y008695D02*
X007228Y008695D01*
X007387Y008536D02*
X008073Y008536D01*
X008102Y008378D02*
X007545Y008378D01*
X007704Y008219D02*
X008073Y008219D01*
X007994Y008061D02*
X008164Y008061D01*
X008039Y007902D02*
X009424Y007902D01*
X009140Y007744D02*
X007982Y007744D01*
X007581Y007744D02*
X003078Y007744D01*
X003109Y007713D02*
X003003Y007818D01*
X002865Y007876D01*
X002715Y007876D01*
X002577Y007818D01*
X002471Y007713D01*
X002414Y007574D01*
X002414Y007425D01*
X002471Y007286D01*
X002577Y007181D01*
X002715Y007123D01*
X002865Y007123D01*
X003003Y007181D01*
X003109Y007286D01*
X003166Y007425D01*
X003166Y007574D01*
X003109Y007713D01*
X003162Y007585D02*
X008988Y007585D01*
X008922Y007426D02*
X003166Y007426D01*
X003091Y007268D02*
X008875Y007268D01*
X008875Y007109D02*
X001519Y007109D01*
X001456Y007083D02*
X001609Y007147D01*
X001726Y007264D01*
X001789Y007417D01*
X001789Y007499D01*
X001373Y007499D01*
X001373Y007083D01*
X001456Y007083D01*
X001373Y007083D02*
X001373Y007499D01*
X001373Y007499D01*
X001373Y007500D01*
X001373Y007500D01*
X001373Y007916D01*
X001456Y007916D01*
X001609Y007852D01*
X001726Y007735D01*
X001789Y007582D01*
X001789Y007500D01*
X001373Y007500D01*
X001373Y007916D01*
X001290Y007916D01*
X001137Y007852D01*
X001020Y007735D01*
X000957Y007582D01*
X000957Y007500D01*
X001372Y007500D01*
X001372Y007499D01*
X000957Y007499D01*
X000957Y007417D01*
X001020Y007264D01*
X001137Y007147D01*
X001290Y007083D01*
X001373Y007083D01*
X001373Y007109D02*
X001373Y007109D01*
X001227Y007109D02*
X000681Y007109D01*
X000681Y006951D02*
X008897Y006951D01*
X008963Y006792D02*
X000681Y006792D01*
X000681Y007268D02*
X001018Y007268D01*
X000957Y007426D02*
X000681Y007426D01*
X000681Y007585D02*
X000958Y007585D01*
X001028Y007744D02*
X000681Y007744D01*
X000681Y007902D02*
X001257Y007902D01*
X001373Y007902D02*
X001373Y007902D01*
X001488Y007902D02*
X007523Y007902D01*
X007396Y008061D02*
X000681Y008061D01*
X000681Y008219D02*
X007237Y008219D01*
X007078Y008378D02*
X000681Y008378D01*
X000681Y008536D02*
X001204Y008536D01*
X001137Y008564D02*
X001020Y008681D01*
X000957Y008834D01*
X000957Y008917D01*
X001372Y008917D01*
X001372Y008917D01*
X001373Y008917D02*
X001373Y009333D01*
X001456Y009333D01*
X001609Y009270D01*
X001726Y009153D01*
X001789Y009000D01*
X001789Y008917D01*
X001373Y008917D01*
X001373Y008917D01*
X001373Y008917D01*
X001373Y009333D01*
X001290Y009333D01*
X001137Y009270D01*
X001020Y009153D01*
X000957Y009000D01*
X000957Y008917D01*
X001372Y008917D01*
X001373Y008916D02*
X001373Y008916D01*
X001373Y008501D01*
X001456Y008501D01*
X001609Y008564D01*
X001726Y008681D01*
X001789Y008834D01*
X001789Y008917D01*
X001373Y008917D01*
X001373Y008916D02*
X001373Y008501D01*
X001290Y008501D01*
X001137Y008564D01*
X001014Y008695D02*
X000681Y008695D01*
X000681Y008853D02*
X000957Y008853D01*
X000962Y009012D02*
X000681Y009012D01*
X000681Y009170D02*
X001038Y009170D01*
X001373Y009170D02*
X001373Y009170D01*
X001373Y009012D02*
X001373Y009012D01*
X001373Y008853D02*
X001373Y008853D01*
X001373Y008695D02*
X001373Y008695D01*
X001373Y008536D02*
X001373Y008536D01*
X001542Y008536D02*
X006920Y008536D01*
X006761Y008695D02*
X003100Y008695D01*
X003109Y008704D02*
X003166Y008842D01*
X003166Y008992D01*
X003109Y009130D01*
X003003Y009236D01*
X002865Y009293D01*
X002715Y009293D01*
X002577Y009236D01*
X002471Y009130D01*
X002414Y008992D01*
X002414Y008842D01*
X002471Y008704D01*
X002577Y008598D01*
X002715Y008541D01*
X002865Y008541D01*
X003003Y008598D01*
X003109Y008704D01*
X003166Y008853D02*
X006603Y008853D01*
X006444Y009012D02*
X003158Y009012D01*
X003068Y009170D02*
X006286Y009170D01*
X006127Y009329D02*
X001465Y009329D01*
X001373Y009329D02*
X001373Y009329D01*
X001280Y009329D02*
X000681Y009329D01*
X000681Y009488D02*
X005969Y009488D01*
X005810Y009646D02*
X000681Y009646D01*
X000681Y009805D02*
X005652Y009805D01*
X005493Y009963D02*
X000681Y009963D01*
X000681Y010122D02*
X005334Y010122D01*
X005176Y010280D02*
X000681Y010280D01*
X000681Y010439D02*
X005017Y010439D01*
X005484Y010439D02*
X006467Y010439D01*
X006626Y010280D02*
X005643Y010280D01*
X005801Y010122D02*
X006784Y010122D01*
X006943Y009963D02*
X005960Y009963D01*
X006118Y009805D02*
X007102Y009805D01*
X007260Y009646D02*
X006277Y009646D01*
X006435Y009488D02*
X007419Y009488D01*
X007523Y009329D02*
X006594Y009329D01*
X006752Y009170D02*
X007604Y009170D01*
X008989Y008219D02*
X009134Y008219D01*
X009329Y008219D02*
X010115Y008219D01*
X010103Y008061D02*
X008899Y008061D01*
X008564Y008061D02*
X008499Y008061D01*
X009872Y007902D02*
X010150Y007902D01*
X010957Y007902D02*
X011177Y007902D01*
X011128Y008061D02*
X011003Y008061D01*
X010992Y008219D02*
X011142Y008219D01*
X011233Y008378D02*
X010915Y008378D01*
X011843Y008378D02*
X012020Y008378D01*
X012630Y008378D02*
X013004Y008378D01*
X012914Y008219D02*
X012721Y008219D01*
X012735Y008061D02*
X012899Y008061D01*
X012949Y007902D02*
X012686Y007902D01*
X012121Y007744D02*
X011741Y007744D01*
X011898Y007902D02*
X011965Y007902D01*
X012427Y007426D02*
X011436Y007426D01*
X011518Y007268D02*
X012345Y007268D01*
X012324Y007109D02*
X011539Y007109D01*
X011510Y006951D02*
X012353Y006951D01*
X012446Y006792D02*
X011417Y006792D01*
X010674Y006792D02*
X010333Y006792D01*
X010399Y006951D02*
X010581Y006951D01*
X010552Y007109D02*
X010421Y007109D01*
X010421Y007268D02*
X010573Y007268D01*
X010656Y007426D02*
X010374Y007426D01*
X013189Y006792D02*
X013530Y006792D01*
X013464Y006951D02*
X013282Y006951D01*
X013311Y007109D02*
X013442Y007109D01*
X013442Y007268D02*
X013289Y007268D01*
X013207Y007426D02*
X013489Y007426D01*
X013705Y008219D02*
X014537Y008219D01*
X014378Y008378D02*
X013614Y008378D01*
X013127Y009646D02*
X023181Y009646D01*
X023181Y009488D02*
X020685Y009488D01*
X020973Y009329D02*
X023181Y009329D01*
X023181Y009170D02*
X021085Y009170D01*
X021071Y009012D02*
X023181Y009012D01*
X023181Y009805D02*
X012968Y009805D01*
X011589Y010597D02*
X014587Y010597D01*
X014745Y010756D02*
X014746Y010756D01*
X014749Y010914D02*
X014904Y010914D01*
X014966Y011073D02*
X014749Y011073D01*
X014749Y011231D02*
X015021Y011231D01*
X014749Y011390D02*
X015355Y011390D01*
X015520Y011549D02*
X014749Y011549D01*
X015296Y010914D02*
X015448Y010914D01*
X015213Y010756D02*
X023181Y010756D01*
X023181Y010914D02*
X020415Y010914D01*
X020387Y010886D02*
X020494Y010993D01*
X020551Y011132D01*
X020551Y011284D01*
X020494Y011423D01*
X020387Y011530D01*
X020247Y011588D01*
X019616Y011588D01*
X019476Y011530D01*
X019369Y011423D01*
X019311Y011284D01*
X019311Y011132D01*
X019369Y010993D01*
X019476Y010886D01*
X019616Y010828D01*
X020247Y010828D01*
X020387Y010886D01*
X020527Y011073D02*
X023181Y011073D01*
X023181Y011231D02*
X020551Y011231D01*
X020507Y011390D02*
X023181Y011390D01*
X023181Y011549D02*
X020342Y011549D01*
X019520Y011549D02*
X016342Y011549D01*
X016507Y011390D02*
X019355Y011390D01*
X019311Y011231D02*
X016551Y011231D01*
X016527Y011073D02*
X019336Y011073D01*
X019448Y010914D02*
X016415Y010914D01*
X015054Y010597D02*
X023181Y010597D01*
X023181Y010439D02*
X014895Y010439D01*
X014874Y010280D02*
X023181Y010280D01*
X023181Y010122D02*
X014939Y010122D01*
X014901Y009963D02*
X023181Y009963D01*
X010673Y010597D02*
X008826Y010597D01*
X008681Y010756D02*
X008667Y010756D01*
X008681Y010914D02*
X008587Y010914D01*
X008681Y011073D02*
X008482Y011073D01*
X008181Y011073D02*
X008050Y011073D01*
X007891Y011231D02*
X008681Y011231D01*
X008681Y011390D02*
X007733Y011390D01*
X007606Y011549D02*
X008681Y011549D01*
X008978Y011390D02*
X008979Y011390D01*
X008978Y011231D02*
X008979Y011231D01*
X008978Y011073D02*
X008979Y011073D01*
X008978Y010914D02*
X008979Y010914D01*
X008978Y010756D02*
X008979Y010756D01*
X007312Y010914D02*
X006458Y010914D01*
X006300Y011073D02*
X007273Y011073D01*
X007204Y011231D02*
X006141Y011231D01*
X005983Y011390D02*
X007173Y011390D01*
X007257Y011549D02*
X005279Y011549D01*
X005219Y011073D02*
X005833Y011073D01*
X004544Y011073D02*
X004496Y011073D01*
X003544Y011073D02*
X003219Y011073D01*
X003305Y011231D02*
X003458Y011231D01*
X003441Y011390D02*
X003321Y011390D01*
X003279Y011549D02*
X003484Y011549D01*
X002484Y011549D02*
X002322Y011549D01*
X002361Y011390D02*
X002441Y011390D01*
X002458Y011231D02*
X002348Y011231D01*
X002275Y011073D02*
X002544Y011073D01*
X001901Y011231D02*
X001861Y011231D01*
X001488Y011073D02*
X001219Y011073D01*
X001305Y011231D02*
X001414Y011231D01*
X001401Y011390D02*
X001321Y011390D01*
X001279Y011549D02*
X001441Y011549D01*
X001708Y009170D02*
X002512Y009170D01*
X002422Y009012D02*
X001784Y009012D01*
X001789Y008853D02*
X002414Y008853D01*
X002480Y008695D02*
X001731Y008695D01*
X001717Y007744D02*
X002502Y007744D01*
X002418Y007585D02*
X001788Y007585D01*
X001789Y007426D02*
X002414Y007426D01*
X002490Y007268D02*
X001727Y007268D01*
X001373Y007268D02*
X001373Y007268D01*
X001373Y007426D02*
X001373Y007426D01*
X001373Y007585D02*
X001373Y007585D01*
X001373Y007744D02*
X001373Y007744D01*
M02*
